<?xml version="1.0" standalone="no"?>
<!DOCTYPE svg PUBLIC "-//W3C//DTD SVG 20010904//EN"
 "http://www.w3.org/TR/2001/REC-SVG-20010904/DTD/svg10.dtd">
<svg version="1.0" xmlns="http://www.w3.org/2000/svg"
 width="1468.000000pt" height="1468.000000pt" viewBox="0 0 1468.000000 1468.000000"
 preserveAspectRatio="xMidYMid meet">
<metadata>
Created by potrace 1.14, written by Peter Selinger 2001-2017
</metadata>
<g transform="translate(0.000000,1468.000000) scale(0.100000,-0.100000)"
fill="#000000" stroke="none">
<path d="M7225 14410 c-60 -121 -116 -220 -123 -220 -7 0 -18 5 -25 10 -7 6
-66 44 -132 84 -66 40 -191 117 -279 170 -87 54 -163 99 -170 102 -8 3 -11
-82 -11 -317 0 -200 -4 -327 -10 -334 -5 -6 -41 -21 -80 -33 -457 -136 -1097
-427 -1625 -739 -283 -167 -653 -418 -882 -599 -51 -40 -98 -77 -103 -81 -260
-203 -729 -653 -910 -873 -20 -25 -42 -49 -48 -55 -7 -5 -30 -32 -52 -60 -21
-27 -42 -52 -45 -55 -33 -30 -292 -378 -387 -520 -74 -112 -213 -337 -213
-345 0 -3 -12 -24 -26 -47 -59 -93 -198 -382 -280 -584 -45 -112 -152 -409
-154 -432 0 -4 -7 -29 -16 -57 -19 -63 -91 -360 -98 -400 -2 -16 -11 -66 -20
-110 -8 -44 -17 -98 -20 -120 -4 -22 -8 -51 -11 -65 -6 -36 -14 -106 -20 -181
-3 -37 -7 -76 -10 -87 -7 -36 -18 -323 -18 -452 0 -165 13 -420 27 -535 4 -27
8 -68 11 -90 12 -107 22 -171 49 -325 23 -128 24 -133 66 -305 193 -798 554
-1534 1037 -2116 66 -81 71 -89 50 -89 -21 0 -150 -66 -175 -89 -53 -51 -56
-63 -53 -219 2 -81 4 -176 6 -212 2 -36 6 -159 10 -275 4 -115 8 -241 10 -280
2 -38 4 -106 6 -150 l2 -80 -134 -2 c-74 -2 -210 -5 -304 -7 -93 -2 -218 -5
-277 -5 l-107 -1 5 -43 c15 -137 67 -332 115 -436 22 -47 64 -118 95 -158 54
-73 278 -343 325 -394 13 -14 56 -61 94 -105 147 -166 543 -570 705 -719 148
-136 349 -307 440 -375 18 -14 45 -35 59 -46 68 -56 297 -201 391 -247 193
-95 285 -120 340 -92 30 16 101 90 159 167 l42 57 52 -33 c144 -92 285 -163
552 -281 206 -91 695 -243 897 -279 15 -2 63 -12 105 -20 43 -9 89 -17 103
-20 14 -2 41 -7 60 -10 74 -13 97 -16 155 -22 33 -4 67 -8 75 -9 8 -2 44 -6
80 -10 36 -3 83 -8 105 -11 239 -25 1262 -24 1520 2 124 12 143 14 185 19 94
12 307 45 360 55 30 6 66 13 80 16 273 53 664 172 929 284 214 91 384 175 528
262 l91 56 50 -67 c28 -36 74 -88 102 -116 48 -47 53 -50 103 -48 185 5 606
261 988 600 19 17 60 54 93 83 32 29 72 64 89 79 59 51 493 487 588 591 294
321 507 575 587 699 71 108 132 297 158 486 3 22 7 50 9 63 4 21 1 22 -68 23
-166 1 -575 12 -668 18 -14 1 -15 62 -15 577 l1 576 -47 43 c-42 38 -180 105
-215 105 -21 0 -15 15 25 61 255 291 541 752 736 1186 105 235 253 651 291
823 2 8 11 42 20 75 20 75 68 294 79 360 2 11 6 34 10 50 10 54 35 229 41 290
4 33 8 70 10 83 4 23 14 161 21 277 9 166 3 555 -11 685 -3 25 -7 70 -10 100
-16 162 -31 259 -72 470 -30 157 -25 134 -68 297 -84 324 -200 632 -356 948
-106 216 -145 289 -217 405 -59 96 -203 315 -234 357 -12 17 -30 41 -38 53
-193 279 -526 656 -851 964 -192 183 -422 376 -664 558 -130 98 -455 323 -507
351 -13 7 -54 33 -93 58 -38 25 -110 69 -160 98 -49 29 -97 56 -105 62 -86 54
-715 379 -733 379 -3 0 -39 16 -81 35 -275 127 -858 345 -948 354 -4 1 -5 31
-3 69 3 37 7 105 10 152 10 185 17 306 21 323 1 9 -1 17 -7 17 -5 0 -139 -65
-298 -145 l-289 -144 -16 24 c-9 13 -16 26 -16 29 0 2 -26 60 -58 128 -32 67
-71 151 -87 186 -26 57 -31 62 -59 62 -31 0 -34 -4 -141 -220z"/>
</g>
</svg>
